<?xml version="1.0" standalone="no"?>

<svg version="1.0" xmlns="http://www.w3.org/2000/svg"
 width="470.000000pt" height="586.000000pt" viewBox="0 0 270.000000 186.000000"
 preserveAspectRatio="xMidYMid meet">

<g transform="translate(0.000000,186.000000) scale(0.100000,-0.100000)"
fill="#000000" stroke="none">
<path d="M1164 1323 c-12 -2 -25 -14 -28 -26 -3 -12 -6 -189 -6 -392 l0 -371
73 4 c39 2 73 5 74 6 1 1 3 75 4 164 1 89 4 162 8 162 3 0 30 -70 60 -155 30
-86 60 -160 65 -164 6 -5 44 -11 84 -13 l72 -4 0 392 0 392 -34 4 c-19 2 -52
2 -75 0 l-41 -4 -2 -152 c0 -83 -1 -157 -1 -163 2 -39 -19 5 -71 152 -52 147
-61 165 -81 165 -12 0 -35 2 -51 4 -16 2 -39 2 -50 -1z"/>
</g>
</svg>
